<?xml version="1.0" encoding="utf-8"?>
<!-- Generator: Adobe Illustrator 25.3.1, SVG Export Plug-In . SVG Version: 6.00 Build 0)  -->
<svg version="1.1" id="user" xmlns="http://www.w3.org/2000/svg" xmlns:xlink="http://www.w3.org/1999/xlink" x="0px" y="0px"
	 viewBox="0 0 39 41" style="enable-background:new 0 0 39 41;" xml:space="preserve">
<style type="text/css">
	.st0{fill:#004A64;}
</style>
<path class="st0" d="M25.8,21.1C29,19,31,15.4,31,11.5C31,5.2,25.8,0,19.5,0C13.2,0,8,5.2,8,11.5c0,3.9,2,7.5,5.2,9.6
	C5.4,23.9,0,31.7,0,40.5V41h39v-0.5C39,31.7,33.6,23.9,25.8,21.1z M19.5,23c8.2,0,15.2,6.4,16.3,15H3.2C4.3,29.4,11.3,23,19.5,23z
	 M19.5,3c4.7,0,8.5,3.8,8.5,8.5S24.2,20,19.5,20c-4.7,0-8.5-3.8-8.5-8.5S14.8,3,19.5,3z"/>
</svg>
