<?xml version="1.0" encoding="utf-8"?>
<!-- Generator: Adobe Illustrator 25.3.1, SVG Export Plug-In . SVG Version: 6.00 Build 0)  -->
<svg version="1.1" id="calendar" xmlns="http://www.w3.org/2000/svg" xmlns:xlink="http://www.w3.org/1999/xlink" x="0px" y="0px"
	 viewBox="0 0 40.8 39.8" style="enable-background:new 0 0 40.8 39.8;" xml:space="preserve">
<style type="text/css">
	.st0{fill:#004A64;}
</style>
<g>
	<circle class="st0" cx="12.4" cy="19.4" r="2.4"/>
	<circle class="st0" cx="20.4" cy="19.4" r="2.4"/>
	<circle class="st0" cx="28.4" cy="19.4" r="2.4"/>
	<circle class="st0" cx="12.4" cy="27.4" r="2.4"/>
	<circle class="st0" cx="20.4" cy="27.4" r="2.4"/>
	<circle class="st0" cx="28.4" cy="27.4" r="2.4"/>
	<path class="st0" d="M36.4,3h-6.6V0H27v3H13.8V0H11v3H4.4C2,3,0,5,0,7.4v28c0,2.4,2,4.4,4.4,4.4h32c2.4,0,4.4-2,4.4-4.4v-28
		C40.8,5,38.8,3,36.4,3z M2.8,7.4c0-0.9,0.7-1.6,1.6-1.6H11v5h2.8v-5H27v5h2.8v-5h6.6c0.9,0,1.6,0.7,1.6,1.6v28
		c0,0.9-0.7,1.6-1.6,1.6h-32c-0.9,0-1.6-0.7-1.6-1.6V7.4z"/>
</g>
</svg>
