<?xml version="1.0" encoding="utf-8"?>
<!-- Generator: Adobe Illustrator 25.3.1, SVG Export Plug-In . SVG Version: 6.00 Build 0)  -->
<svg version="1.1" id="instagram" xmlns="http://www.w3.org/2000/svg" xmlns:xlink="http://www.w3.org/1999/xlink" x="0px" y="0px"
	 viewBox="0 0 20 20" style="enable-background:new 0 0 20 20;" xml:space="preserve">
<style type="text/css">
	.st0{fill:#83BF3E;}
</style>
<g>
	<path class="st0" d="M14.4,6.6C14.3,6.4,14.2,6.2,14,6c-0.2-0.2-0.4-0.3-0.7-0.4c-0.2-0.1-0.5-0.2-1.1-0.2c-0.6,0-0.8,0-2.3,0
		c-0.2,0-0.4,0-0.5,0c-1.1,0-1.3,0-1.8,0c-0.6,0-0.9,0.1-1.1,0.2C6.4,5.7,6.2,5.8,6,6C5.8,6.2,5.7,6.4,5.6,6.6
		C5.5,6.8,5.4,7.1,5.4,7.7c0,0.6,0,0.8,0,2.3s0,1.7,0,2.3c0,0.6,0.1,0.9,0.2,1.1C5.7,13.6,5.8,13.8,6,14c0.2,0.2,0.4,0.3,0.7,0.4
		c0.2,0.1,0.5,0.2,1.1,0.2c0.6,0,0.8,0,2.3,0s1.7,0,2.3,0c0.6,0,0.9-0.1,1.1-0.2c0.3-0.1,0.5-0.2,0.7-0.4c0.2-0.2,0.3-0.4,0.4-0.7
		c0.1-0.2,0.2-0.5,0.2-1.1c0-0.6,0-0.8,0-2.3s0-1.7,0-2.3C14.6,7.1,14.5,6.8,14.4,6.6z M10,12.9c-1.6,0-2.9-1.3-2.9-2.9
		c0-1.6,1.3-2.9,2.9-2.9c1.6,0,2.9,1.3,2.9,2.9C12.9,11.6,11.6,12.9,10,12.9z M13,7.6c-0.4,0-0.7-0.3-0.7-0.7c0-0.4,0.3-0.7,0.7-0.7
		c0.4,0,0.7,0.3,0.7,0.7C13.7,7.3,13.4,7.6,13,7.6z"/>
	<path class="st0" d="M10,8.1C9,8.1,8.1,9,8.1,10c0,1,0.8,1.9,1.9,1.9c1,0,1.9-0.8,1.9-1.9C11.9,9,11,8.1,10,8.1z"/>
	<path class="st0" d="M10,0.4c-5.3,0-9.6,4.3-9.6,9.6c0,5.3,4.3,9.6,9.6,9.6c5.3,0,9.6-4.3,9.6-9.6C19.6,4.7,15.3,0.4,10,0.4z
		 M15.7,12.4c0,0.6-0.1,1-0.3,1.4c-0.1,0.4-0.3,0.7-0.7,1c-0.3,0.3-0.6,0.5-1,0.7c-0.4,0.1-0.8,0.2-1.4,0.3c-0.6,0-0.8,0-2.3,0
		c-1.5,0-1.7,0-2.3,0c-0.6,0-1-0.1-1.4-0.3c-0.4-0.1-0.7-0.3-1-0.7c-0.3-0.3-0.5-0.6-0.7-1c-0.1-0.4-0.2-0.8-0.3-1.4
		c0-0.6,0-0.8,0-2.3c0-1.5,0-1.7,0-2.3c0-0.6,0.1-1,0.3-1.4c0.1-0.4,0.3-0.7,0.7-1c0.3-0.3,0.6-0.5,1-0.7C6.6,4.5,7,4.4,7.7,4.3
		c0.6,0,0.8,0,2.3,0s1.7,0,2.3,0c0.6,0,1,0.1,1.4,0.3c0.4,0.1,0.7,0.3,1,0.7c0.3,0.3,0.5,0.6,0.7,1c0.1,0.4,0.2,0.8,0.3,1.4
		c0,0.6,0,0.8,0,2.3C15.7,11.6,15.7,11.7,15.7,12.4z"/>
</g>
</svg>
