<?xml version="1.0" encoding="utf-8"?>
<!-- Generator: Adobe Illustrator 25.3.1, SVG Export Plug-In . SVG Version: 6.00 Build 0)  -->
<svg version="1.1" id="Youtube_w_x2F__circle" xmlns="http://www.w3.org/2000/svg" xmlns:xlink="http://www.w3.org/1999/xlink"
	 x="0px" y="0px" viewBox="0 0 20 20" style="enable-background:new 0 0 20 20;" xml:space="preserve">
<style type="text/css">
	.st0{fill:#83BF3E;}
</style>
<path class="st0" d="M11.6,9.8l-2.2-1C9.2,8.7,9,8.8,9,9v2c0,0.2,0.2,0.3,0.4,0.2l2.2-1C11.8,10.1,11.8,9.9,11.6,9.8z M10,0.4
	c-5.3,0-9.6,4.3-9.6,9.6s4.3,9.6,9.6,9.6s9.6-4.3,9.6-9.6S15.3,0.4,10,0.4z M10,13.9c-4.9,0-5-0.4-5-3.9s0.1-3.9,5-3.9s5,0.4,5,3.9
	S14.9,13.9,10,13.9z"/>
</svg>
