<?xml version="1.0" encoding="utf-8"?>
<!-- Generator: Adobe Illustrator 25.4.1, SVG Export Plug-In . SVG Version: 6.00 Build 0)  -->
<svg version="1.1" id="Layer_3" xmlns="http://www.w3.org/2000/svg" xmlns:xlink="http://www.w3.org/1999/xlink" x="0px" y="0px"
	 viewBox="0 0 178.6 178.6" style="enable-background:new 0 0 178.6 178.6;" xml:space="preserve">
<style type="text/css">
	.st0{fill:#FFFFFF;}
	.st1{fill:#ABABAB;stroke:#ABABAB;stroke-width:0.5;stroke-miterlimit:10;}
	.st2{fill:#ABABAB;stroke:#ABABAB;stroke-width:0.5;stroke-miterlimit:9.9999;}
	.st3{enable-background:new    ;}
	.st4{fill:#ABABAB;}
	.st5{fill:#E2E2E2;}
</style>
<!-- <rect x="0" class="st0" width="178.6" height="178.6"/> -->
<g>
	<g>
		<path class="st1" d="M68.8,75.6l1.7-1.7h-1.2c-1.5,0-2.7-1.2-2.7-2.7V48.6c0-1.5,1.2-2.7,2.7-2.7h29.2l1.8-1.8h-31
			c-2.5,0-4.4,2-4.4,4.4v22.7C64.9,73.5,66.6,75.4,68.8,75.6z"/>
		<path class="st1" d="M97,59.9c0,4.2-3.4,7.6-7.6,7.6c-0.7,0-1.4-0.1-2.1-0.3l-1.4,1.4c1.1,0.4,2.3,0.7,3.5,0.7
			c5.2,0,9.4-4.2,9.4-9.4c0-1.2-0.3-2.4-0.7-3.5l-1.4,1.4C96.8,58.5,97,59.2,97,59.9z"/>
		<path class="st1" d="M110.2,44.2l-1.7,1.7h0.8c1.5,0,2.7,1.2,2.7,2.7v22.7c0,1.5-1.2,2.7-2.7,2.7H80.6l-1.8,1.8h30.6
			c2.5,0,4.4-2,4.4-4.4V48.6C113.8,46.5,112.3,44.7,110.2,44.2z"/>
		<path class="st1" d="M79.9,59.9c0,1.3,0.3,2.6,0.8,3.8l1.4-1.4c-0.2-0.8-0.4-1.5-0.4-2.4c0-4.2,3.4-7.6,7.6-7.6
			c0.8,0,1.6,0.2,2.4,0.4l1.4-1.4c-1.2-0.5-2.4-0.8-3.8-0.8C84.2,50.5,79.9,54.7,79.9,59.9z"/>
	</g>
	<g>
		
			<rect x="53" y="59.2" transform="matrix(0.7071 -0.7071 0.7071 0.7071 -16.3333 80.7954)" class="st2" width="72.7" height="1.8"/>
	</g>
	<path class="st1" d="M104.7,50.1c-1.4,0-2.6,1.1-2.6,2.6c0,1.4,1.1,2.6,2.6,2.6s2.6-1.1,2.6-2.6C107.2,51.3,106.1,50.1,104.7,50.1z
		"/>
	<g>
		<path class="st1" d="M89.3,97.5c-20.7,0-37.6-16.9-37.6-37.6s16.9-37.6,37.6-37.6s37.6,16.9,37.6,37.6
			C126.9,80.7,110.1,97.5,89.3,97.5z M89.3,24.1c-19.7,0-35.8,16.1-35.8,35.8s16.1,35.8,35.8,35.8s35.8-16.1,35.8-35.8
			C125.2,40.2,109.1,24.1,89.3,24.1z"/>
	</g>
	<g>
		<rect x="71.2" y="38.8" class="st1" width="6.9" height="1.8"/>
	</g>
</g>
<g class="st3">
	<path class="st4" d="M63.1,130h-2l-4-9.8v9.8H55v-14.7h2.3l3.7,9.1v-9.1h2.2V130z"/>
	<path class="st4" d="M73.2,125.3c0,1.7-0.2,2.6-0.8,3.5c-0.7,0.9-1.8,1.4-3.2,1.4s-2.5-0.5-3.2-1.4c-0.6-0.8-0.8-1.8-0.8-3.5V120
		c0-1.7,0.2-2.6,0.8-3.5c0.7-0.9,1.8-1.4,3.2-1.4s2.5,0.5,3.2,1.4c0.6,0.8,0.8,1.8,0.8,3.5V125.3z M67.5,125.3c0,1.2,0.1,1.6,0.3,2
		c0.3,0.5,0.8,0.8,1.5,0.8s1.2-0.3,1.5-0.8c0.2-0.5,0.3-0.8,0.3-2V120c0-1.2,0-1.5-0.3-2c-0.3-0.5-0.8-0.8-1.5-0.8s-1.2,0.3-1.5,0.8
		c-0.2,0.4-0.3,0.8-0.3,2V125.3z"/>
	<path class="st4" d="M81,130h-2.3v-14.7h3.8c1.5,0,2.4,0.3,3.1,0.9c0.8,0.7,1.2,1.8,1.2,3.4c0,1.6-0.4,2.7-1.2,3.4
		c-0.7,0.7-1.6,0.9-3.1,0.9H81V130z M82,122c1.8,0,2.4-0.5,2.4-2.3c0-1.7-0.6-2.3-2.4-2.3h-1v4.6H82z"/>
	<path class="st4" d="M90.7,123.5v6.5h-2.3v-14.7h2.3v6.1H94v-6.1h2.3V130H94v-6.5H90.7z"/>
	<path class="st4" d="M106.3,125.3c0,1.7-0.2,2.6-0.8,3.5c-0.7,0.9-1.8,1.4-3.2,1.4s-2.5-0.5-3.2-1.4c-0.6-0.8-0.8-1.8-0.8-3.5V120
		c0-1.7,0.2-2.6,0.8-3.5c0.7-0.9,1.8-1.4,3.2-1.4s2.5,0.5,3.2,1.4c0.6,0.8,0.8,1.8,0.8,3.5V125.3z M100.6,125.3c0,1.2,0.1,1.6,0.3,2
		c0.3,0.5,0.8,0.8,1.5,0.8s1.2-0.3,1.5-0.8c0.2-0.5,0.3-0.8,0.3-2V120c0-1.2,0-1.5-0.3-2c-0.3-0.5-0.8-0.8-1.5-0.8s-1.2,0.3-1.5,0.8
		c-0.2,0.4-0.3,0.8-0.3,2V125.3z"/>
	<path class="st4" d="M112.8,130h-2.3v-12.6h-2.8v-2.1h8v2.1h-2.9V130z"/>
	<path class="st4" d="M125,125.3c0,1.7-0.2,2.6-0.8,3.5c-0.7,0.9-1.8,1.4-3.2,1.4s-2.5-0.5-3.2-1.4c-0.6-0.8-0.8-1.8-0.8-3.5V120
		c0-1.7,0.2-2.6,0.8-3.5c0.7-0.9,1.8-1.4,3.2-1.4s2.5,0.5,3.2,1.4c0.6,0.8,0.8,1.8,0.8,3.5V125.3z M119.3,125.3c0,1.2,0.1,1.6,0.3,2
		c0.3,0.5,0.8,0.8,1.5,0.8s1.2-0.3,1.5-0.8c0.2-0.5,0.3-0.8,0.3-2V120c0-1.2,0-1.5-0.3-2c-0.3-0.5-0.8-0.8-1.5-0.8s-1.2,0.3-1.5,0.8
		c-0.2,0.4-0.3,0.8-0.3,2V125.3z"/>
</g>
<g class="st3">
	<path class="st4" d="M53.8,148.8l-0.6,3.2H51l2.8-14.7h3.1l3,14.7h-2.3l-0.6-3.2H53.8z M55.3,140.1l-1.2,6.6h2.4L55.3,140.1z"/>
	<path class="st4" d="M63,152l-3.1-14.7h2.4l2.2,11.2l1.9-11.2h2.3L65.9,152H63z"/>
	<path class="st4" d="M71.8,148.8l-0.6,3.2H69l2.8-14.7h3.1l3,14.7h-2.3l-0.6-3.2H71.8z M73.3,140.1l-1.2,6.6h2.4L73.3,140.1z"/>
	<path class="st4" d="M81.7,152h-2.3v-14.7h2.3V152z"/>
	<path class="st4" d="M86.2,149.9h4.5v2.1h-6.8v-14.7h2.3V149.9z"/>
	<path class="st4" d="M94.9,148.8l-0.6,3.2h-2.2l2.8-14.7H98l3,14.7h-2.3l-0.6-3.2H94.9z M96.5,140.1l-1.2,6.6h2.4L96.5,140.1z"/>
	<path class="st4" d="M102.7,137.3h3.4c2.8,0,4.3,1.3,4.3,3.7c0,1.7-0.8,2.8-2.4,3.3c2,0.6,2.8,1.6,2.8,3.5c0,2.6-1.6,4.2-4.4,4.2
		h-3.7V137.3z M105.8,143.3c1.4,0,2.3-0.8,2.3-2.1c0-0.6-0.2-1-0.6-1.4c-0.4-0.3-0.8-0.5-1.7-0.5H105v3.9H105.8z M106.1,149.9
		c1.5,0,2.3-0.7,2.3-2.1c0-1.5-1-2.4-2.6-2.4H105v4.5H106.1z"/>
	<path class="st4" d="M115,149.9h4.5v2.1h-6.8v-14.7h2.3V149.9z"/>
	<path class="st4" d="M127.6,139.4h-4.4v3.9h3.2v2.1h-3.2v4.5h4.4v2.1H121v-14.7h6.6V139.4z"/>
</g>
<!-- <path class="st5" d="M-1-1v180.6h180.6V-1H-1z M1,177.6V1h176.6v176.6H1z"/> -->
</svg>
